<svg xmlns="http://www.w3.org/2000/svg" width="65.75" height="65.75" viewBox="0 0 514.55 514.55" shape-rendering="geometricPrecision" text-rendering="geometricPrecision" image-rendering="optimizeQuality" fill-rule="evenodd" clip-rule="evenodd"><circle cx="257.28" cy="257.28" r="257.28" fill="#815ba6"/><path d="M255.5 117.68c42.21 0 80.13 12.88 107.35 34.7 26.95 21.6 43.46 51.9 43.46 87.17 0 2.19-.07 4.56-.19 7.07-2 40.69-21.19 69.7-49.1 88.55-27.52 18.58-63.49 27.13-99.62 27.13-2.77 0-5.66-.06-8.66-.17-7.23 9.23-36.41 41.1-90.02 33.63l-12.28-1.71 9.85-7.51c4.06-3.1 10.62-10.61 14.62-19.86 2.37-5.47 3.79-11.49 3.14-17.41-20.21-11.42-36.78-26.47-48.24-44.79-11.26-18-17.58-39.1-17.58-62.96 0-35.56 15.91-66.6 42.41-88.73 26.28-21.94 63-35.09 104.85-35.09zm100.88 42.74c-25.42-20.36-61.04-32.39-100.88-32.39-39.37 0-73.75 12.24-98.22 32.67-24.18 20.19-38.69 48.45-38.69 80.8 0 21.85 5.75 41.12 16 57.5 10.92 17.45 26.97 31.72 46.64 42.43l2.11 1.15.48 2.35c1.82 8.96-.02 17.92-3.43 25.81-2.59 5.99-6.13 11.41-9.62 15.72 48.63 1.88 71.11-32.35 71.17-32.45l1.62-2.47 2.93.14c3.43.17 7.08.25 10.92.25 34.22 0 68.13-7.99 93.84-25.35 25.33-17.1 42.75-43.47 44.57-80.46.09-1.96.14-4.15.14-6.58 0-31.94-15.03-59.45-39.58-79.12z" fill="#fff" fill-rule="nonzero"/></svg>