<svg xmlns="http://www.w3.org/2000/svg" width="31.626" height="29.718" viewBox="0 0 76.73 72.1" shape-rendering="geometricPrecision" text-rendering="geometricPrecision" image-rendering="optimizeQuality" fill-rule="evenodd" clip-rule="evenodd"><defs><style>.fil0{fill:#444;fill-rule:nonzero}</style></defs><g id="Слой_x0020_1"><g id="_1035058216"><path class="fil0" d="M34.7 4h8.11c1.66 0 3.16.68 4.26 1.77a6.017 6.017 0 0 1 1.77 4.26v27.88l-3.22 5.53V10.02c0-.77-.32-1.47-.82-1.98-.51-.51-1.21-.83-1.98-.83h-8.15c.03-.14.04-.28.04-.43V3.99zm2.19 64.71H6.02c-1.66 0-3.16-.68-4.26-1.77l-.09-.1A5.978 5.978 0 0 1 0 62.68V10.04c0-1.66.68-3.17 1.77-4.26a6.03 6.03 0 0 1 4.25-1.77h8.12V6.8c0 .15.01.29.04.43l-.14.01H6.02c-.77 0-1.47.32-1.98.82a2.83 2.83 0 0 0-.82 1.99v52.64c0 .74.29 1.41.75 1.92l.07.06c.51.51 1.21.83 1.98.83h30.87v3.23z"/><path class="fil0" d="M7.52 20.7a1.15 1.15 0 0 1 0-2.3h17.54a1.15 1.15 0 0 1 0 2.3H7.52zm0 12.06a1.15 1.15 0 0 1 0-2.3h17.54a1.15 1.15 0 0 1 0 2.3H7.52zm25.83-13a1.14 1.14 0 1 1 1.49-1.73l.99.85 1.24-2.16a1.145 1.145 0 0 1 1.99 1.13l-1.93 3.36-.13.18c-.41.48-1.13.53-1.61.12l-2.04-1.75zm0 12.27a1.14 1.14 0 1 1 1.49-1.73l.99.85 1.24-2.16a1.145 1.145 0 0 1 1.99 1.13l-1.93 3.36-.13.18c-.41.48-1.13.53-1.61.12l-2.04-1.75zM17.26 0h14.33c.92 0 1.76.38 2.36.98.61.61.98 1.44.98 2.36v2.93c0 .92-.38 1.76-.98 2.36-.61.61-1.44.98-2.36.98H17.26c-.92 0-1.75-.38-2.36-.98a3.3 3.3 0 0 1-.98-2.36V3.34c0-.92.38-1.76.98-2.36.61-.6 1.45-.98 2.36-.98zm14.33 3.21H17.26c-.04 0-.07.01-.09.03-.02.03-.04.07-.04.1v2.93c0 .04.02.07.04.1s.05.04.09.04h14.33c.04 0 .07-.02.09-.04.02-.02.04-.06.04-.1V3.34c0-.04-.02-.07-.04-.09a.149.149 0 0 0-.09-.04zM7.52 44.81a1.15 1.15 0 0 1 0-2.3h17.54a1.15 1.15 0 0 1 0 2.3H7.52zm25.83-.72a1.14 1.14 0 1 1 1.49-1.73l.99.85 1.24-2.16a1.145 1.145 0 0 1 1.99 1.13l-1.93 3.36-.13.18c-.41.48-1.13.53-1.61.12l-2.04-1.75zm6.11 24.44l1.46-13.31 23.15-39.98.01.01c.29-.54 1.02-1.68 2.07-1.96.97-.26 1.86.07 2.34.31l.02-.04 6.37 3.67c.27.16.76.47 1.14.9.36.4.64.9.7 1.49.03.37-.02.74-.14 1.12-.08.26-.2.52-.33.82-5.17 11.54-16.71 28.99-23.43 40.68l-13.74 9.85.39-3.56zm4.57-12.29l-.99 9.07 7.37-5.28 22.95-39.82.06-.13-6.41-3.7c-.04.01-.02.18-.02.18l-.06.18-22.89 39.52z"/><path class="fil0" d="M44.27 52.64l9 5.3-1.62 2.76-9-5.31zM62.4 21.3l9.13 5.26-1.59 2.77-9.13-5.26z"/></g></g></svg>