<svg xmlns="http://www.w3.org/2000/svg" width="14.143" height="20.177" viewBox="0 0 218.8 312.15" shape-rendering="geometricPrecision" text-rendering="geometricPrecision" image-rendering="optimizeQuality" fill-rule="evenodd" clip-rule="evenodd"><defs><style>.fil0{fill:#838383;fill-rule:nonzero}</style></defs><g id="Слой_x0020_1"><g id="_1002472760"><path class="fil0" d="M13.19 312.15c-5.65 0-10.23-4.58-10.23-10.23s4.58-10.23 10.23-10.23h193.14c5.65 0 10.23 4.58 10.23 10.23s-4.58 10.23-10.23 10.23H13.19zm10.12-181.43c14.59 59.23 67.46 114.6 86.41 132.96 18.78-18.35 71.17-73.7 85.77-132.96v-.08c1.88-7.38 2.82-14.58 2.91-21.47.26-20.51-6.72-39.53-18.61-54.64-11.9-15.12-28.74-26.35-48.16-31.3-6.9-1.76-14.05-2.75-21.28-2.84-8.09-.1-16 .88-23.58 2.81a88.521 88.521 0 0 0-47.3 30.48c-11.75 14.69-18.82 33.18-19.08 53.16-.09 7.64.84 15.63 2.91 23.79v.08zm79.65 154.55c-.22-.2-80.04-71.02-99.45-149.6-2.5-9.75-3.61-19.51-3.49-29.07.32-24.66 9.05-47.49 23.56-65.63C38.09 22.83 58.36 9.34 81.75 3.38c9.1-2.32 18.79-3.5 28.86-3.37 9.09.12 17.83 1.29 26.08 3.4a109.95 109.95 0 0 1 59.19 38.49c14.65 18.62 23.25 42.1 22.92 67.51-.11 8.67-1.23 17.48-3.47 26.26-19.41 78.55-98.55 149.4-98.77 149.6l-6.79 6.08-6.79-6.08z"/><path class="fil0" d="M109.4 50.42c15.65 0 29.83 6.36 40.1 16.63 10.31 10.31 16.67 24.5 16.67 40.14 0 15.67-6.36 29.87-16.63 40.14s-24.47 16.63-40.14 16.63c-15.66 0-29.87-6.36-40.14-16.63s-16.63-24.47-16.63-40.14c0-15.64 6.36-29.83 16.63-40.1 10.27-10.31 24.47-16.67 40.14-16.67zm25.69 31.08a36.255 36.255 0 0 0-25.69-10.61c-10.02 0-19.11 4.07-25.67 10.63-6.57 6.54-10.63 15.64-10.63 25.68 0 10.02 4.07 19.11 10.63 25.67 6.56 6.56 15.65 10.63 25.67 10.63 10.03 0 19.11-4.07 25.68-10.63 6.56-6.56 10.63-15.64 10.63-25.67 0-10.03-4.06-19.13-10.61-25.69z"/></g></g></svg>