<svg xmlns="http://www.w3.org/2000/svg" width="14.143" height="18.832" viewBox="0 0 66.53 88.59" shape-rendering="geometricPrecision" text-rendering="geometricPrecision" image-rendering="optimizeQuality" fill-rule="evenodd" clip-rule="evenodd"><defs><style>.fil0{fill:#444;fill-rule:nonzero}</style></defs><g id="Слой_x0020_1"><g id="_1002490592"><path class="fil0" d="M7.09 39.75C11.53 57.76 27.6 74.6 33.37 80.18c5.71-5.58 21.64-22.41 26.08-40.43v-.02c.57-2.24.86-4.43.89-6.53.08-6.24-2.04-12.02-5.66-16.61-3.62-4.6-8.74-8.01-14.64-9.52-2.1-.54-4.27-.84-6.47-.86-2.46-.03-4.87.27-7.17.86-5.8 1.48-10.81 4.8-14.38 9.27-3.57 4.47-5.72 10.09-5.8 16.17-.03 2.32.25 4.75.89 7.23v.02zm24.22 47c-.07-.06-24.34-21.6-30.24-45.49a33.71 33.71 0 0 1-1.06-8.84c.1-7.5 2.75-14.44 7.16-19.96A33.13 33.13 0 0 1 24.86 1.03 33.54 33.54 0 0 1 33.64 0c2.76.04 5.42.39 7.93 1.03a33.484 33.484 0 0 1 18 11.7c4.45 5.66 7.07 12.8 6.97 20.53-.03 2.64-.38 5.31-1.06 7.99-5.9 23.88-29.97 45.43-30.03 45.49l-2.07 1.85-2.07-1.85z"/><path class="fil0" d="M33.27 15.33c4.76 0 9.07 1.93 12.19 5.06 3.13 3.14 5.07 7.45 5.07 12.21 0 4.77-1.93 9.08-5.06 12.2a17.224 17.224 0 0 1-12.21 5.06c-4.76 0-9.08-1.93-12.2-5.06A17.218 17.218 0 0 1 16 32.6c0-4.76 1.93-9.07 5.06-12.19 3.12-3.13 7.44-5.07 12.2-5.07zm7.81 9.45a11.027 11.027 0 0 0-7.81-3.23c-3.05 0-5.81 1.24-7.81 3.23s-3.23 4.76-3.23 7.81 1.24 5.81 3.23 7.81c1.99 1.99 4.76 3.23 7.81 3.23s5.81-1.24 7.81-3.23c1.99-1.99 3.23-4.76 3.23-7.81s-1.23-5.82-3.23-7.81z"/></g></g></svg>