<svg xmlns="http://www.w3.org/2000/svg" width="28.223" height="25.935" viewBox="0 0 659.03 605.6" shape-rendering="geometricPrecision" text-rendering="geometricPrecision" image-rendering="optimizeQuality" fill-rule="evenodd" clip-rule="evenodd"><path d="M319.83 602.18c-73.35-58.28-132.31-109.29-178.9-156.36-47.1-47.6-81.57-91.22-105.39-134.2C12.48 270 .26 224.29.01 181.14c-.19-32.49 6.34-63.61 20.03-90.62 13.94-27.48 35.23-50.7 64.24-66.77C111 8.95 144.21.27 184.15.02c38.04-.24 69.99 8.4 95.85 23.42 20.27 11.77 36.76 27.39 49.5 45.7 12.74-18.3 29.23-33.93 49.5-45.7C404.87 8.42 436.82-.22 474.86.02c39.93.24 73.14 8.93 99.86 23.73 29.01 16.07 50.29 39.27 64.25 66.77 13.7 27 20.23 58.13 20.03 90.62-.26 43.13-12.47 88.86-35.54 130.48-23.81 42.99-58.28 86.61-105.38 134.2-46.61 47.09-105.61 98.13-179 156.43-5.75 4.58-13.79 4.37-19.28-.07zM162.76 424.11c43.55 44 98.58 91.87 166.75 146.37 68.17-54.5 123.2-102.38 166.76-146.37 45.08-45.55 77.89-86.98 100.31-127.46 20.56-37.1 31.44-77.61 31.67-115.63.17-27.66-5.3-53.99-16.79-76.62-11.23-22.14-28.36-40.82-51.7-53.75C537.4 38.27 509.15 31 474.74 30.78c-32.2-.19-58.95 6.93-80.29 19.33-23 13.35-39.97 33.01-51.01 56.24-1.47 3.12-4 5.77-7.36 7.36-7.7 3.63-16.88.34-20.51-7.36-11.04-23.23-28.01-42.88-51.01-56.24-21.36-12.4-48.09-19.52-80.29-19.33-34.42.21-62.66 7.48-85.03 19.87C75.9 63.58 58.77 82.27 47.55 104.4c-11.48 22.63-16.95 48.96-16.79 76.62.23 38.03 11.11 78.53 31.67 115.63 22.43 40.47 55.24 81.91 100.32 127.46z" fill="#888" fill-rule="nonzero"/></svg>