<svg xmlns="http://www.w3.org/2000/svg" width="19.082" height="19.082" viewBox="0 0 103.05 103.05" shape-rendering="geometricPrecision" text-rendering="geometricPrecision" image-rendering="optimizeQuality" fill-rule="evenodd" clip-rule="evenodd"><defs><style>.fil1{fill:#030000;fill-rule:nonzero}</style></defs><g id="Слой_x0020_1"><g id="_981149440"><circle cx="80.3" cy="23.24" r="4.85" fill="#030000"/><path class="fil1" d="M51.64 25.61c7.12 0 13.56 2.89 18.23 7.56 4.68 4.68 7.57 11.13 7.57 18.24 0 7.12-2.89 13.58-7.56 18.24-4.67 4.67-11.12 7.56-18.24 7.56-7.11 0-13.56-2.89-18.23-7.56-4.68-4.69-7.57-11.13-7.57-18.24 0-7.12 2.89-13.57 7.56-18.24 4.67-4.67 11.12-7.56 18.24-7.56zm14.18 11.62a20.014 20.014 0 0 0-14.18-5.86 20 20 0 0 0-14.17 5.87 19.975 19.975 0 0 0-5.87 14.17c0 5.54 2.24 10.56 5.86 14.17 3.63 3.63 8.64 5.87 14.19 5.87a20 20 0 0 0 14.17-5.87 20 20 0 0 0 5.87-14.17c0-5.54-2.24-10.55-5.86-14.18z"/><path class="fil1" d="M30.35 0h42.34c8.35 0 15.94 3.41 21.44 8.91 5.5 5.5 8.91 13.09 8.91 21.44v42.34c0 8.34-3.42 15.93-8.92 21.43-5.49 5.5-13.08 8.92-21.44 8.92H30.34c-8.35 0-15.94-3.41-21.44-8.91-5.5-5.51-8.91-13.1-8.91-21.44V30.35C-.01 22 3.4 14.41 8.9 8.91 14.4 3.41 21.99 0 30.34 0zm42.34 5.76H30.35c-6.76 0-12.91 2.77-17.37 7.23-4.46 4.46-7.23 10.61-7.23 17.37V72.7c0 6.77 2.76 12.92 7.22 17.37 4.47 4.46 10.62 7.23 17.38 7.23h42.34c6.76 0 12.91-2.77 17.37-7.23 4.46-4.45 7.23-10.6 7.23-17.37V30.36c0-6.76-2.77-12.92-7.23-17.37-4.46-4.46-10.61-7.23-17.37-7.23z"/></g></g></svg>