<svg xmlns="http://www.w3.org/2000/svg" width="40.826" height="28.125" viewBox="0 0 419.13 288.73" shape-rendering="geometricPrecision" text-rendering="geometricPrecision" image-rendering="optimizeQuality" fill-rule="evenodd" clip-rule="evenodd"><defs><style>.fil0{fill:#444;fill-rule:nonzero}</style></defs><g id="Слой_x0020_1"><g id="_1033772904"><path class="fil0" d="M55.57 0h307.99c15.26 0 29.16 6.26 39.23 16.34 10.08 10.05 16.34 23.95 16.34 39.23v177.58c0 15.28-6.25 29.19-16.32 39.25-10.07 10.07-23.96 16.32-39.25 16.32H55.57c-15.28 0-29.19-6.25-39.25-16.32C6.26 262.31 0 248.42 0 233.15V55.57C0 40.3 6.26 26.41 16.32 16.35 26.39 6.25 40.29 0 55.57 0zm307.99 13.6H55.57c-11.54 0-22.03 4.72-29.64 12.33-7.61 7.6-12.33 18.1-12.33 29.64v177.58c0 11.55 4.72 22.05 12.32 29.66 7.62 7.6 18.12 12.32 29.66 12.32h307.99c11.54 0 22.03-4.73 29.64-12.33 7.61-7.61 12.33-18.11 12.33-29.64V55.58c0-11.53-4.73-22.03-12.33-29.64-7.59-7.62-18.09-12.33-29.64-12.33z"/><path class="fil0" d="M228.86 38.37a5.83 5.83 0 0 1 5.83-5.83c3.22 0 5.82 2.61 5.82 5.83v218.38c0 3.22-2.61 5.83-5.82 5.83a5.83 5.83 0 0 1-5.83-5.83V38.37zM48.8 91.33a5.83 5.83 0 0 1-5.83-5.83c0-3.22 2.61-5.82 5.83-5.82h141.4c3.22 0 5.83 2.61 5.83 5.82a5.83 5.83 0 0 1-5.83 5.83H48.8zm0 58.87a5.83 5.83 0 1 1 0-11.66h141.4a5.83 5.83 0 1 1 0 11.66H48.8zm0 58.86c-3.22 0-5.83-2.61-5.83-5.82a5.83 5.83 0 0 1 5.83-5.83h141.4a5.83 5.83 0 0 1 5.83 5.83c0 3.22-2.61 5.82-5.83 5.82H48.8zM321.21 55.62c1.78-2.25 3.69-4.16 5.86-5.74 4.61-3.36 9.97-5.05 16.97-5.05 7.78 0 14.87 2.93 20.05 7.66 5.3 4.85 8.59 11.58 8.59 19.03 0 11.96-6.24 23.56-15.61 34.97-8.8 10.74-20.38 21.31-31.95 31.89a5.792 5.792 0 0 1-7.82 0c-11.57-10.57-23.15-21.15-31.95-31.89-9.36-11.41-15.61-23.01-15.61-34.97 0-7.44 3.29-14.18 8.59-19.03 5.18-4.73 12.27-7.66 20.05-7.66 6.99 0 12.36 1.68 16.97 5.05 2.17 1.58 4.08 3.49 5.86 5.74zm12.68 3.62c-2.76 2.02-5.13 5.32-7.58 9.82-.52.95-1.3 1.77-2.32 2.33a5.808 5.808 0 0 1-7.87-2.32c-2.46-4.5-4.82-7.81-7.59-9.82-2.53-1.85-5.73-2.77-10.15-2.77-4.82 0-9.14 1.75-12.23 4.57-2.95 2.7-4.78 6.41-4.78 10.48 0 8.89 5.17 18.16 12.92 27.61 7.35 8.95 16.99 18.03 26.91 27.12 9.91-9.09 19.56-18.17 26.91-27.12 7.75-9.44 12.92-18.71 12.92-27.61 0-4.07-1.83-7.78-4.78-10.48-3.08-2.82-7.41-4.57-12.23-4.57-4.42 0-7.62.93-10.15 2.77z"/></g></g></svg>