<svg xmlns="http://www.w3.org/2000/svg" width="133.499" height="133.499" viewBox="0 0 1087.26 1087.26" shape-rendering="geometricPrecision" text-rendering="geometricPrecision" image-rendering="optimizeQuality" fill-rule="evenodd" clip-rule="evenodd"><circle cx="543.63" cy="543.63" r="543.63" fill="#e2e2e2"/><path d="M477.14 798.08l-23.7 108.16c18.43 14.87 60 21.02 90.48 2.74 26.91 17.01 72.05 12.13 90.48-2.74l-23.7-108.16H477.16zm216-608.11c17.71 0 32.08 14.34 32.08 32.03 0 4.23-.8 10.39-2.25 17.33 3.72-5.78 7.36-10.57 10.27-13.49 12.49-12.53 32.79-12.54 45.33-.03s12.58 32.8.09 45.33c-2.67 2.68-6.9 6.01-12.02 9.47 5.83-1.25 10.98-1.95 14.66-2 17.69-.23 32.22 13.94 32.45 31.66.23 17.71-13.93 32.26-31.62 32.49-4.24.06-10.43-.67-17.41-2.04 5.85 3.66 10.7 7.25 13.67 10.13 12.68 12.33 12.95 32.63.6 45.33-12.35 12.7-32.64 13-45.33.66-3.34-3.25-7.7-8.84-12.08-15.54 1.79 7.58 2.81 14.39 2.83 18.94.09 17.69-14.19 32.11-31.91 32.2-9.88.05-18.74-4.37-24.66-11.36 14.27-10.85 22.51-27.73 22.28-45.71-.13-10-2.83-19.35-7.47-27.44 3.15.84 6.45 1.29 9.86 1.29 21 0 38.03-17.03 38.03-38.03 0-21.01-17.03-38.03-38.03-38.03-13.88 0-26.02 7.43-32.66 18.53-8.83-20.7-29.08-34.31-52.01-34.3-3.07 0-6.14.25-9.18.75-3.49-10.95-.97-23.42 7.64-32.22 12.39-12.66 32.69-12.89 45.33-.51 3.39 3.32 7.82 9.06 12.25 15.93-1.81-7.76-2.83-14.73-2.83-19.36 0-17.69 14.36-32.03 32.07-32.03zm-296.74 0c17.72 0 32.08 14.34 32.08 32.03 0 4.23-.8 10.39-2.25 17.33 3.72-5.78 7.36-10.57 10.27-13.49 12.49-12.53 32.79-12.54 45.33-.03 8.71 8.69 11.39 21.13 8.03 32.11-25.83-3.96-51.09 10.17-61 34.52-6.54-11.51-18.91-19.27-33.09-19.27-21.01 0-38.03 17.03-38.03 38.03s17.03 38.03 38.03 38.03c3.53 0 6.95-.48 10.19-1.38-12.16 21.83-8.68 49.17 9.09 67.2 1.81 1.83 3.74 3.55 5.79 5.12-5.84 7.42-14.89 12.22-25.07 12.27-17.71.09-32.15-14.17-32.24-31.87-.03-4.88 1-12.34 2.86-20.6-4.38 6.99-8.79 12.84-12.2 16.18-12.62 12.4-32.91 12.21-45.33-.42-12.42-12.64-12.26-32.93.36-45.33 3-2.94 7.9-6.66 13.81-10.46-6.67 1.39-12.58 2.14-16.67 2.11-17.69-.12-31.94-14.57-31.82-32.29.12-17.71 14.55-31.98 32.24-31.87 3.54.02 8.44.62 14.01 1.69-4.55-3.02-8.31-5.92-10.77-8.32-12.64-12.37-12.85-32.67-.46-45.33 12.39-12.66 32.69-12.89 45.33-.51 3.39 3.32 7.82 9.06 12.25 15.93-1.81-7.76-2.83-14.73-2.83-19.36 0-17.69 14.36-32.03 32.07-32.03zm148.71 65.39c17.71 0 32.08 14.34 32.08 32.03 0 4.23-.8 10.39-2.25 17.33 3.72-5.79 7.36-10.58 10.27-13.49 12.49-12.53 32.79-12.54 45.33-.03s12.58 32.81.09 45.33c-2.67 2.68-6.9 6.01-12.02 9.47 5.83-1.25 10.98-1.95 14.66-2 17.69-.23 32.22 13.95 32.44 31.66.23 17.71-13.93 32.26-31.62 32.48-4.24.06-10.43-.67-17.41-2.04 5.85 3.65 10.7 7.25 13.66 10.13 12.69 12.33 12.96 32.63.61 45.33-12.35 12.7-32.64 13-45.33.66-3.34-3.25-7.7-8.84-12.08-15.54 1.79 7.58 2.81 14.38 2.83 18.94.09 17.69-14.19 32.11-31.91 32.2-17.71.09-32.15-14.17-32.24-31.87-.02-4.88 1-12.34 2.86-20.6-4.38 6.99-8.79 12.83-12.19 16.18-12.62 12.4-32.91 12.21-45.33-.42-12.42-12.63-12.26-32.93.36-45.33 2.99-2.94 7.9-6.67 13.81-10.46-6.67 1.39-12.58 2.14-16.67 2.11-17.69-.12-31.94-14.57-31.82-32.29.12-17.71 14.55-31.98 32.24-31.87 3.54.02 8.44.62 14.01 1.69-4.55-3.02-8.31-5.92-10.77-8.32-12.64-12.38-12.85-32.67-.46-45.33 12.39-12.66 32.69-12.89 45.33-.52 3.39 3.32 7.82 9.06 12.25 15.93-1.81-7.76-2.83-14.73-2.83-19.36 0-17.69 14.36-32.03 32.07-32.03zm-.63 83.21c21 0 38.03 17.03 38.03 38.03s-17.03 38.03-38.03 38.03c-21.01 0-38.03-17.03-38.03-38.03 0-21.01 17.03-38.03 38.03-38.03zm-64.92 364.35L328.51 434.06c.91.05 1.82.08 2.72.09 4.31.04 8.62-.38 12.86-1.25 2.49 3.94 5.42 7.58 8.72 10.84 11.02 10.9 26.26 17.6 43.07 17.51 9.29-.05 18.09-2.18 25.97-5.95 2.69 9.52 7.74 18.51 15.15 26.05 11.76 11.97 27.31 18.05 42.93 18.19 4.31.04 8.62-.38 12.87-1.25 2.49 3.94 5.42 7.58 8.72 10.84 11.02 10.9 26.26 17.6 43.07 17.51 16.86-.09 32.05-6.95 42.97-17.97 2.96-2.99 5.62-6.29 7.91-9.83 4.37.91 8.83 1.33 13.28 1.27 15.52-.23 30.94-6.29 42.6-18.13l.06.05.23-.34c7.35-7.56 12.35-16.55 14.99-26.05l.22.1c7.8 3.59 16.54 5.57 25.78 5.53 16.86-.09 32.05-6.95 42.97-17.97 2.96-2.99 5.62-6.29 7.91-9.83 4.37.91 8.83 1.33 13.28 1.26.74-.01 1.48-.03 2.22-.07L608.29 702.95l-64.36-.77-64.36.77zm148.23 41.18l-.13-11.74 121.17 23.98-29.85 52.55-91.2-64.8zm-.52 42.08v-25l74.5 79.86-41.33 28.06-33.17-82.92zm-137.76-11.84h108.83c4.55 0 8.26-3.72 8.26-8.26v-39.25c0-4.54-3.72-8.26-8.26-8.26H489.51c-4.55 0-8.26 3.72-8.26 8.26v39.25c0 4.55 3.72 8.26 8.26 8.26z" fill="#bdbdbd"/></svg>