<svg xmlns="http://www.w3.org/2000/svg" width="19.51" height="19.005" viewBox="0 0 75.09 73.15" shape-rendering="geometricPrecision" text-rendering="geometricPrecision" image-rendering="optimizeQuality" fill-rule="evenodd" clip-rule="evenodd"><path d="M26.03 18.04L17.36 6.45c-.73-.97-1.69-1.36-2.7-1.38-1.61-.03-3.41.73-4.86 1.73-1.1.75-2.14 1.67-2.96 2.69-.66.83-1.17 1.72-1.41 2.62-.18.66-.29 1.36-.33 2.08-.5 8.31 6.8 20.23 16.65 30.78 9.97 10.69 22.44 19.82 32.06 22.4 1.37.37 2.66.59 3.85.67 8.26.5 12.15-6.57 12.16-6.59.12-.25.58-1.45-.95-2.7-3.03-2.49-11.53-8.91-13.02-10.03-.55-.21-2.38-.8-3.77.31-1.78 1.56-2.74 2.3-2.97 2.48-.1.1-.25.17-.37.25-.25.14-4.17 2.3-9.62-1.91l-.54-.42c-4.57-3.52-13-10-15.56-16.54-2.61-6.65.88-10.44 2.19-11.57 0 0 1.89-2.01.91-3.2l-.08-.09zM21.44 3.4l8.67 11.59c3.61 4.57-1.29 9.92-1.31 9.93l-.19.19-.26.16c-.01 0-2.25 1.54-.6 5.76 2.05 5.23 9.76 11.16 13.93 14.37l.54.42c2.41 1.86 3.63 1.64 3.97 1.51.37-.29 1.21-.96 2.55-2.14l.05-.04c4.12-3.43 9.47-.93 9.49-.92l.21.11.18.13c.03.02 10.02 7.55 13.42 10.35 5.01 4.12 2.24 8.92 2.24 8.93l-.02.05c-.01.03-5.49 9.99-16.95 9.29-1.55-.09-3.18-.38-4.86-.83-10.53-2.82-23.91-12.53-34.46-23.85C7.35 36.95-.56 23.67.04 13.87c.07-1.08.23-2.11.49-3.09.43-1.61 1.27-3.12 2.35-4.47 1.15-1.44 2.58-2.7 4.07-3.72C9.15 1.08 12-.07 14.77-.02c2.49.05 4.86 1.01 6.67 3.4z" fill-rule="nonzero"/></svg>