<svg xmlns="http://www.w3.org/2000/svg" width="37.496" height="28.125" viewBox="0 0 156.85 117.64" shape-rendering="geometricPrecision" text-rendering="geometricPrecision" image-rendering="optimizeQuality" fill-rule="evenodd" clip-rule="evenodd"><defs><style>.fil0{fill:#444;fill-rule:nonzero}</style></defs><g id="Слой_x0020_1"><g id="_672854000"><path class="fil0" d="M45.85 17.15a2.76 2.76 0 1 1 0 5.52H21.78c-4.47 0-8.53 1.83-11.48 4.78l-.14.13c-2.86 2.93-4.64 6.94-4.64 11.35v56.93c0 4.48 1.83 8.55 4.78 11.5 2.94 2.94 7 4.77 11.48 4.77h113.28c4.47 0 8.54-1.83 11.48-4.78l.14-.13c2.86-2.93 4.64-6.95 4.64-11.35V38.94c0-4.48-1.83-8.54-4.77-11.48-2.96-2.95-7.02-4.78-11.49-4.78h-21.92c-1.52 0-2.76-1.24-2.76-2.76 0-1.52 1.24-2.76 2.76-2.76h21.92c5.99 0 11.44 2.45 15.39 6.39 3.94 3.96 6.4 9.4 6.4 15.38v56.93c0 5.91-2.39 11.29-6.24 15.22l-.15.17c-3.95 3.95-9.39 6.4-15.39 6.4H21.79c-5.98 0-11.43-2.46-15.39-6.41-3.94-3.95-6.39-9.39-6.39-15.38V38.93c0-5.9 2.39-11.28 6.24-15.22l.15-.17c3.95-3.95 9.39-6.4 15.38-6.4h24.07z"/><path class="fil0" d="M115.9 19.89a2.749 2.749 0 0 1-2.73 2.77 2.749 2.749 0 0 1-2.77-2.73l-.01-1.22c-.07-3.63-1.61-6.94-4.05-9.34-2.43-2.38-5.76-3.86-9.41-3.86H62.08c-3.65 0-6.98 1.47-9.41 3.85-2.43 2.38-3.96 5.65-4.06 9.25l.01 1.3c0 1.52-1.24 2.76-2.76 2.76-1.52 0-2.76-1.24-2.76-2.76l.01-1.35a18.9 18.9 0 0 1 5.71-13.13l.01-.01C52.25 2.07 56.94 0 62.07 0h34.85c5.15 0 9.84 2.09 13.28 5.46 3.43 3.37 5.6 8.03 5.69 13.18l.01 1.26z"/><path class="fil0" d="M78.43 17.87c12.24 0 23.32 4.96 31.34 12.98s12.98 19.1 12.98 31.34c0 12.24-4.96 23.32-12.98 31.34s-19.1 12.98-31.34 12.98c-12.24 0-23.32-4.96-31.34-12.98s-12.98-19.1-12.98-31.34c0-12.24 4.96-23.32 12.98-31.34s19.1-12.98 31.34-12.98zm27.99 16.33c-7.16-7.16-17.06-11.59-27.99-11.59S57.6 27.04 50.44 34.2 38.85 51.26 38.85 62.19s4.43 20.83 11.59 27.99 17.06 11.59 27.99 11.59 20.83-4.43 27.99-11.59 11.6-17.06 11.6-27.99-4.43-20.83-11.6-27.99z"/><path class="fil0" d="M92.92 47.69c-1.9-1.9-4.16-3.42-6.66-4.46-2.4-1-5.05-1.55-7.84-1.55s-5.44.55-7.84 1.54c-2.5 1.04-4.76 2.57-6.66 4.46a20.452 20.452 0 0 0-6.01 14.5c0 2.79.55 5.44 1.54 7.84 1.04 2.5 2.57 4.76 4.46 6.66 1.88 1.9 4.15 3.42 6.66 4.46 2.4 1 5.06 1.55 7.85 1.55s5.44-.55 7.84-1.54c2.5-1.04 4.76-2.57 6.66-4.46 1.9-1.9 3.42-4.16 4.46-6.66 1-2.4 1.55-5.06 1.55-7.84 0-2.79-.55-5.44-1.54-7.84-1.04-2.5-2.57-4.76-4.46-6.66zm-4.85-8.83a25.22 25.22 0 0 1 8.2 5.48c2.32 2.32 4.2 5.1 5.48 8.2 1.23 2.99 1.92 6.25 1.92 9.66 0 3.4-.68 6.67-1.92 9.65a25.158 25.158 0 0 1-5.48 8.21 25.22 25.22 0 0 1-8.2 5.48 25.323 25.323 0 0 1-9.65 1.92c-3.41 0-6.67-.68-9.65-1.92a25.275 25.275 0 0 1-8.2-5.48c-2.32-2.31-4.2-5.1-5.48-8.19a25.336 25.336 0 0 1-1.92-9.66c0-6.97 2.83-13.29 7.4-17.86 2.32-2.32 5.1-4.2 8.2-5.48 2.99-1.23 6.25-1.92 9.66-1.92s6.67.68 9.65 1.92zM22.69 6.38h11.14c1.74 0 3.32.71 4.46 1.86 1.15 1.16 1.87 2.74 1.87 4.47v4.45h-5.53v-4.45c0-.22-.09-.42-.23-.57a.818.818 0 0 0-.57-.23H22.69c-.22 0-.42.09-.56.24-.15.14-.24.34-.24.56v4.45h-.11c-1.87 0-3.69.24-5.43.69v-5.13c0-1.74.71-3.32 1.86-4.46a6.272 6.272 0 0 1 4.47-1.87z"/></g></g></svg>