<svg xmlns="http://www.w3.org/2000/svg" width="18.364" height="18.407" viewBox="0 0 287.19 287.86" shape-rendering="geometricPrecision" text-rendering="geometricPrecision" image-rendering="optimizeQuality" fill-rule="evenodd" clip-rule="evenodd"><defs><style>.fil0{fill:#626262;fill-rule:nonzero}</style></defs><g id="Слой_x0020_1"><g id="_993277696"><path class="fil0" d="M111.36 0c30.7 0 58.55 12.48 78.71 32.64 20.17 20.13 32.64 47.98 32.64 78.72 0 30.69-12.47 58.53-32.62 78.69-20.2 20.19-48.05 32.66-78.74 32.66-30.72 0-58.56-12.47-78.71-32.61C12.46 169.91-.02 142.08-.02 111.36c0-30.75 12.47-58.6 32.62-78.75C52.74 12.47 80.59 0 111.34 0zm64.11 47.22c-16.37-16.4-39.05-26.53-64.11-26.53-25.04 0-47.72 10.15-64.12 26.55-16.4 16.4-26.56 39.08-26.56 64.12 0 25.06 10.15 47.74 26.53 64.14 16.4 16.38 39.08 26.53 64.14 26.53 25.07 0 47.74-10.14 64.11-26.52 16.42-16.41 26.56-39.09 26.56-64.15 0-25.04-10.15-47.72-26.56-64.14z"/><path class="fil0" d="M282.91 262.73c5.73 5.77 5.71 15.11-.06 20.84s-15.11 5.71-20.84-.06l-85.42-85.78c-5.73-5.77-5.71-15.11.06-20.84s15.11-5.71 20.84.06l85.42 85.78z"/></g></g></svg>