<svg xmlns="http://www.w3.org/2000/svg" width="26.467" height="15.329" viewBox="0 0 111.63 64.65" shape-rendering="geometricPrecision" text-rendering="geometricPrecision" image-rendering="optimizeQuality" fill-rule="evenodd" clip-rule="evenodd"><path d="M60.49 59.78l.47-.1c.01-2.11.15-5.07.94-7.73.95-3.21 2.81-5.95 6.31-6.63l.13-.02c4.99-.87 8.55 3.46 11.01 6.46l.27.33c2.7 3.29 5.84 7.06 9.46 7.79 1.32.26 6.43.29 11.03.08 3.23-.14 6.06-.35 6.75-.57.06-.31-.73-1.37-1.41-2.24l-1.29-1.6c-2-2.6-4.32-4.91-6.7-7.27-.45-.42-.9-.88-1.35-1.31-2.49-2.41-6.31-6.09-6.96-8.39-.17-.59-.27-1.25-.25-2.02.02-.73.14-1.52.41-2.38l.08-.22c1.23-3.59 4.97-8.31 7.51-11.53l.99-1.26c1.26-1.62 2.53-3.24 3.84-5.05 1.25-1.72 2.43-3.48 3.46-5.3.41-.73.78-1.41 1.09-2.04.21-.44.39-.85.52-1.22-3.08-.4-9.45-.15-14.49.03l-4.2.14c-.59 1.14-1.23 2.55-1.84 3.88-.39.87-.77 1.7-1.26 2.69-1.12 2.31-2.25 4.62-3.61 7.08-1.33 2.39-2.82 4.76-4.6 7.07-.5.65-.99 1.25-1.46 1.81-.47.55-.95 1.07-1.4 1.53-.68.69-1.5 1.44-2.4 2.05-1.04.7-2.23 1.24-3.54 1.37-1.6.16-2.97-.29-4.07-1.11-1.15-.86-1.97-2.12-2.45-3.51-.98-2.8-.71-12.41-.53-19.12.07-2.41.12-4.43.11-5.52v-.09c-.01-.11-.12-.62-1.33-.74-.66-.07-1.43-.13-2.26-.19l-4.04-.22c-2.38-.13-5.89-.32-8.34-.03.61.84 1.14 1.9 1.6 3.29.35 1.06.62 2.75.78 4.74.15 1.88.22 4.17.19 6.53-.03 2.09-.14 4.22-.34 6.16-.19 1.81-.46 3.49-.82 4.88-.33 1.28-.77 2.28-1.27 3.06-.73 1.1-1.61 1.8-2.61 2.17-1.01.37-2.05.37-3.09.1l-.11-.03c-.81-.23-1.6-.62-2.34-1.1l-.13-.1c-2.95-1.98-5.72-5.58-8.08-9.36-2.32-3.71-4.25-7.57-5.55-10.16l-.1-.22c-.28-.61-.59-1.21-.89-1.8l-.68-1.34c-.72-1.43-1.45-2.88-1.8-3.48-.5-.4-1.79-.39-2.45-.38l-4.67-.04c-2.58-.01-5.19-.02-7.66-.12l.98 2.18c.54 1.16 1.15 2.41 1.79 3.7 2.82 5.66 6.2 12.19 9.87 18.35 3.67 6.14 7.68 11.98 11.8 16.35 1.33 1.41 2.56 2.54 3.85 3.58 1.31 1.05 2.67 2.01 4.26 3.06 1.37.82 2.84 1.56 4.42 2.22a40.953 40.953 0 0 0 7.98 2.43c1.01.2 2 .35 2.95.45 1.36.15 2.64.24 3.86.24 1.19 0 2.39-.07 3.66-.25zm3.46 3.47c-.78.59-1.65.83-2.58 1.01l-.13.02c-1.5.21-2.95.3-4.41.3s-2.88-.09-4.35-.25a35.78 35.78 0 0 1-3.34-.51c-1.07-.21-2.19-.48-3.36-.8-1.98-.55-3.82-1.18-5.53-1.9-1.72-.72-3.38-1.56-4.99-2.53l-.08-.05c-1.78-1.17-3.28-2.22-4.69-3.36a42.243 42.243 0 0 1-4.31-4c-4.37-4.63-8.57-10.74-12.39-17.13C9.98 27.68 6.57 21.08 3.74 15.4c-.69-1.39-1.31-2.68-1.84-3.81l-.06-.12C1.33 10.37.88 9.36.52 8.48-.81 5.2.62 3.77 2.16 3.14c.65-.26 1.32-.29 1.7-.28l.2.01c2.85.16 5.78.17 8.67.18.54 0 4.5-.03 4.68.04 1.38-.01 4.11-.01 5.89 1.93l.23.29c.4.59 1.31 2.39 2.19 4.16l.67 1.31c.34.67.69 1.35.98 2l.03.05c1.26 2.53 3.15 6.29 5.33 9.79 2.07 3.32 4.42 6.42 6.73 7.98l.12.07c.38.25.74.44 1.05.53l.07.02c.16.04.28.05.36.03.09-.03.21-.15.36-.38.25-.39.48-.95.69-1.71.3-1.15.53-2.6.7-4.2.19-1.84.29-3.83.32-5.75.03-2.13-.04-4.27-.19-6.12-.13-1.68-.32-3-.55-3.66-.36-1.08-.74-1.79-1.16-2.28-.37-.43-.83-.73-1.39-1.01-.2-.09-.39-.22-.57-.37a2.279 2.279 0 0 1-.18-3.22C41.8-.47 49.32-.06 53.68.18l4.08.22c.87.06 1.7.13 2.46.21 5.26.56 5.4 4.8 5.41 5.16v.05c.02 1.19-.04 3.29-.11 5.81-.18 6.36-.43 15.47.28 17.49.2.57.5 1.06.88 1.35.23.18.53.27.89.23.44-.04.94-.29 1.43-.62.63-.42 1.21-.97 1.71-1.46.38-.39.78-.83 1.19-1.3.44-.51.88-1.06 1.32-1.62 1.63-2.11 3-4.29 4.22-6.5 1.19-2.15 2.34-4.5 3.49-6.86.28-.55.73-1.54 1.2-2.57.86-1.9 1.79-3.95 2.7-5.45.4-.65 1.12-1.09 1.94-1.09 1.26-.01 3.21-.08 5.4-.16 5.37-.2 12.18-.46 15.54.03 1.49.22 2.52.59 3.25 1.56.77 1.03.86 2.22.35 3.93-.21.68-.51 1.42-.89 2.21-.35.72-.76 1.49-1.23 2.31-1.14 2.01-2.41 3.91-3.73 5.73-1.2 1.66-2.57 3.42-3.95 5.17l-1 1.28c-2.36 2.97-5.81 7.32-6.78 10.15l-.04.16c-.15.46-.21.82-.22 1.1 0 .24.03.47.09.68.32 1.13 3.59 4.29 5.73 6.35l1.34 1.31c2.5 2.48 4.95 4.92 7.15 7.77l1.28 1.58c1.99 2.56 3.97 5.97.67 8.63l-.25.19c-1.12.73-5 1.17-9.17 1.35-4.93.22-10.53.16-12.12-.15-5.25-1.05-8.99-5.6-12.19-9.51l-.17-.2c-1.76-2.15-4.32-5.26-6.72-4.86l-.04.01c-1.43.28-2.28 1.72-2.79 3.43-.64 2.18-.75 4.8-.75 6.65 0 1.59-.6 2.62-1.59 3.37zm43.28-55.91l.07.02c-.05-.06-.06-.05-.07-.02zm0 .01c.12.09.2.17.09.03l-.09-.03z" fill="#030000" fill-rule="nonzero"/></svg>